# xmcd
#
# Track frame offsets: 
#        150
#        16997
#        34800
#        52085
#        69400
#        84745
#        101910
#        119910
#        135877
#        160007
#        178230
#        195615
#        213675
#        230710
#        251467
#        275130
#
# Disc length: 3883 seconds
#
# Revision: 4
# Processed by: cddbd v1.5.2PL0 Copyright (c) Steve Scherf et al.
# Submitted via: ExactAudioCopy v0.95b4
#
DISCID=f30f2910
DTITLE=Travis Tritt - The lovin' side
DYEAR=2002
DGENRE=Country
TTITLE0=For you
TTITLE1=When I touch you
TTITLE2=I'm all the man
TTITLE3=Only you (and you alone)
TTITLE4=More than you'll ever know
TTITLE5=If I lost you
TTITLE6=Someone for me
TTITLE7=Can I trust you with my heart
TTITLE8=When something is wrong with my baby (with Patti LaBelle)
TTITLE9=Between an old memory and me
TTITLE10=Nothing short of dying
TTITLE11=Help me hold on
TTITLE12=Anymore
TTITLE13=Did you fall far enough
TTITLE14=Drift off to dream
TTITLE15=She's going home with me
EXTD=
EXTT0=
EXTT1=
EXTT2=
EXTT3=
EXTT4=
EXTT5=
EXTT6=
EXTT7=
EXTT8=
EXTT9=
EXTT10=
EXTT11=
EXTT12=
EXTT13=
EXTT14=
EXTT15=
PLAYORDER=
